<svg height="512" viewBox="0 0 60 60" width="512" xmlns="http://www.w3.org/2000/svg"><g id="Page-1" fill="none" fill-rule="evenodd"><g id="025---Vegan-Burger" fill-rule="nonzero"><rect id="Rectangle-path" fill="#60a917" height="18" rx="2" width="58" x="1" y="1"/><path id="Shape" d="m57 1h-3c1.1032019.0032948 1.9967052.89679813 2 2v14c-.0032948 1.1032019-.8967981 1.9967052-2 2h3c1.1032019-.0032948 1.9967052-.8967981 2-2v-14c-.0032948-1.10320187-.8967981-1.9967052-2-2z" fill="#549414"/><path id="Shape" d="m55 39h-50c0-7.7319865 6.2680135-14 14-14h8v4h6v-4h8c7.7319865 0 14 6.2680135 14 14z" fill="#ff9801"/><path id="Rectangle-path" d="m24 25h3v4h-3z" fill="#f57c00"/><path id="Shape" d="m41 25h-3c7.7319865 0 14 6.2680135 14 14h3c0-7.7319865-6.2680135-14-14-14z" fill="#f57c00"/><path id="Shape" d="m59 43c-.0018942 1.0606427-.4223608 2.0776689-1.17 2.83-.3536303.3568532-.7752919.6390944-1.24.83-.4996842.2254391-1.0418165.3413667-1.59.34h-50c-.54818353.0013667-1.09031581-.1145609-1.59-.34-1.4629451-.6283054-2.41083499-2.0678394-2.41-3.66-.00132908-1.0612728.41967146-2.0794609 1.17010528-2.8298947.75043381-.7504338 1.76862187-1.1714344 2.82989472-1.1701053h50c2.209139 0 4 1.790861 4 4z" fill="#a0522d"/><path id="Shape" d="m55 39-3-.0000012c1.6188267-.0012728 3.0788192.9733107 3.6984897 2.4688407.6196706 1.49553.2768311 3.2171142-.8684897 4.3611605-.3536303.3568532-.7752919.6390944-1.24.83-.4996842.2254391-1.0418165.3413667-1.59.3400119l3-.0000119c.5481835.0013667 1.0903158-.1145609 1.59-.34.4647081-.1909056.8863697-.4731468 1.24-.83 1.1453208-1.1440463 1.4881603-2.8656305.8684897-4.3611605-.6196705-1.49553-2.079663-2.4701135-3.6984897-2.4688395z" fill="#783e22"/><path id="Shape" d="m55 49.64v1.36c0 4.418278-3.581722 8-8 8h-34c-4.418278 0-8-3.581722-8-8v-1.36c1.66534104 2.0942449 4.18451749 3.3281273 6.86 3.36h.14c4.49 0 4.49-2 8.99-2s4.5 2 9 2c2.94 0 3.96-.85 5.57-1.44l2.73 2.73c.3930079.3899779 1.0269921.3899779 1.42 0l2.73-2.73c1.6.59 2.62 1.44 5.56 1.44h.14c2.6754825-.0318727 5.194659-1.2657551 6.86-3.36z" fill="#ff9801"/><path id="Shape" d="m51.915 52.105c-.5480104 3.951478-3.9257028 6.8938897-7.915 6.895h3c4.418278 0 8-3.581722 8-8v-1.36c-.8334801 1.0396057-1.8870983 1.8814757-3.085 2.465z" fill="#f57c00"/><path id="Shape" d="m56.59 46.66c-.3415517 1.0829458-.8806352 2.0933035-1.59 2.98-1.665341 2.0942449-4.1845175 3.3281273-6.86 3.36h-.14c-2.94 0-3.96-.85-5.56-1.44l4.56-4.56h8c.5481835.0013667 1.0903158-.1145609 1.59-.34z" fill="#60a917"/><path id="Shape" d="m55 47h-1.535c-.3389779.954961-.8340317 1.8470715-1.465 2.64-1.3979886 1.7505117-3.4035984 2.9107524-5.618 3.25.5360782.074644 1.0767518.1114018 1.618.11h.14c2.6754825-.0318727 5.194659-1.2657551 6.86-3.36.7093648-.8866965 1.2484483-1.8970542 1.59-2.98-.4996842.2254391-1.0418165.3413667-1.59.34z" fill="#549414"/><path id="Shape" d="m35.56 51.56c-1.61.59-2.63 1.44-5.57 1.44-4.5 0-4.5-2-9-2s-4.5 2-8.99 2h-.14c-2.67548251-.0318727-5.19465896-1.2657551-6.86-3.36-.70936483-.8866965-1.24844827-1.8970542-1.59-2.98.49968419.2254391 1.04181647.3413667 1.59.34h26z" fill="#60a917"/><path id="Shape" d="m31 47h-3l4.56 4.56c-1.2950178.643463-2.6758038 1.0974385-4.1 1.348.5074981.0634587 1.0185544.0941889 1.53.092 2.94 0 3.96-.85 5.57-1.44z" fill="#549414"/><path id="Shape" d="m47 47-7.29 7.29c-.3930079.3899779-1.0269921.3899779-1.42 0l-7.29-7.29z" fill="#ffdc00"/><path id="Rectangle-path" d="m27 19h6v10h-6z" fill="#ffe0b2"/><path id="Shape" d="m13.372 4.071c-.2462521-.09854514-.5215667-.09522227-.7653686.00923748-.243802.10445976-.4361169.30149818-.5346314.54776252l-3.072 7.68-3.071-7.68c-.20544994-.51307252-.78792747-.7624499-1.30099999-.55699998-.51307252.20544993-.76244992.78792745-.55700001 1.30099998l4 10c.15151782.3803506.51958059.6299203.929.6299203s.77748218-.2495697.929-.6299203l4-10c.0988577-.2463696.0956981-.52193658-.0087825-.76597473-.1044806-.24403816-.3017073-.43651879-.5482175-.53502527z" fill="#f5f5f5"/><path id="Shape" d="m22 6c.5522847 0 1-.44771525 1-1s-.4477153-1-1-1h-6c-.5522847 0-1 .44771525-1 1v10c0 .5522847.4477153 1 1 1h6c.5522847 0 1-.4477153 1-1s-.4477153-1-1-1h-5v-3h5c.5522847 0 1-.4477153 1-1 0-.55228475-.4477153-1-1-1h-5v-3z" fill="#f5f5f5"/><path id="Shape" d="m35 10h-4c-.5522847 0-1 .4477153-1 1s.4477153 1 1 1h1c0 1.1045695-.8954305 2-2 2h-1c-1.1045695 0-2-.8954305-2-2v-4c0-1.1045695.8954305-2 2-2h1c.8431967-.00475838 1.5962199.52685838 1.874 1.323.1890143.50752921.7477123.77235144 1.2602435.59735401s.7926049-.7262079.6317565-1.24335401c-.5535367-1.60598709-2.0673028-2.68202315-3.766-2.677h-1c-2.209139 0-4 1.790861-4 4v4c0 2.209139 1.790861 4 4 4h1c2.209139 0 4-1.790861 4-4h1c.5522847 0 1-.4477153 1-1s-.4477153-1-1-1z" fill="#f5f5f5"/><path id="Shape" d="m45.93 14.63-4-10c-.1508496-.38168001-.5195914-.63244048-.93-.63244048s-.7791504.25076047-.93.63244048l-4 10c-.1321883.332257-.0770783.7097967.1445706.9904037.2216488.2806069.5761629.4216501.93.37s.6532411-.2881467.7854294-.6204037l.95-2.37h4.24l.95 2.37c.1516273.380721.5201962.6303967.93.63.1267195.0010343.2524161-.0227462.37-.07.5094805-.2085866.7584163-.7864732.56-1.3zm-6.25-3.63 1.32-3.31 1.32 3.31z" fill="#f5f5f5"/><path id="Shape" d="m55 4c-.5522847 0-1 .44771525-1 1v6.828l-5.181-7.4c-.2502106-.35713846-.7029949-.51096482-1.1189782-.38015533s-.6992407.51609038-.7000218.95215533v10c0 .5522847.4477153 1 1 1s1-.4477153 1-1v-6.828l5.181 7.4c.1867585.267814.492499.4275905.819.428.5522847 0 1-.4477153 1-1v-10c0-.55228475-.4477153-1-1-1z" fill="#f5f5f5"/><path id="Shape" d="m9.831 36c-.3372263-.0001737-.65165223-.1703015-.83628602-.4524929-.18463379-.2821913-.21460456-.6384341-.07971398-.9475071 1.752302-4.0078762 5.7107993-6.5984644 10.085-6.6.5522847 0 1 .4477153 1 1s-.4477153 1-1 1c-3.579045.0012634-6.8179988 2.120792-8.252 5.4-.1591192.3645881-.5192018.6001929-.917.6z" fill="#f5f5f5"/><g fill="#000"><path id="Shape" d="m57 0h-54c-1.65685425 0-3 1.34314575-3 3v14c0 1.6568542 1.34314575 3 3 3h23v4h-7c-7.9343262-.0064906-14.4953886 6.1790523-14.956 14.1-2.06455414.3954836-3.65816702 2.0451934-3.98201779 4.1221893-.32385077 2.0769958.69186992 4.1335599 2.53801779 5.1388107.3370319.9304566.80871889 1.8064468 1.4 2.6v1.039c.00606096 4.9680501 4.03194995 8.993939 9 9h34c4.9682782-.0055111 8.9944889-4.0317218 9-9v-1.035c.5910863-.7936773 1.0627573-1.6696377 1.4-2.6 1.8493189-1.0042786 2.867342-3.06296 2.5428321-5.1422024-.32451-2.0792425-1.9214394-3.729805-3.9888321-4.1227976-.4785427-7.9117793-7.0277723-14.0869924-14.954-14.1h-7v-4h23c1.6568542 0 3-1.3431458 3-3v-14c0-1.65685425-1.3431458-3-3-3zm-26.414 48 3.214 3.215c-1.190571.5577196-2.4959323.8266719-3.81.785-1.4193915.0400191-2.8264026-.2741012-4.094-.914-1.5245006-.7504185-3.2072158-1.122907-4.906-1.086-1.6991911-.0366396-3.3822448.3361909-4.907 1.087-1.2640039.6388437-2.6672823.9526309-4.083.913h-.129c-2.37660673-.0285588-4.61405616-1.1256142-6.092-2.987-.25146694-.3201247-.47844339-.6587508-.679-1.013zm24.319 0c-.2023697.3551488-.4313585.6944533-.685 1.015-1.4756942 1.8574014-3.7079522 2.9533373-6.08 2.985h-.14c-1.310653.0418865-2.6126673-.226397-3.8-.783l3.214-3.217zm-15.905 5.586-5.586-5.586h11.172zm8 4.414h-34c-3.4585391-.0040797-6.39570341-2.5333635-6.913-5.953 1.66926288 1.2453445 3.6905131 1.9291314 5.773 1.953h.14c1.6967453.0368798 3.3774321-.3352722 4.9-1.085 1.266209-.6398744 2.6718402-.9543371 4.09-.915 1.4194158-.0402722 2.8264883.2738617 4.094.914 1.5245529.7502695 3.2072313 1.1227499 4.906 1.086 1.699645.0371875 3.3834151-.3338592 4.91-1.082.139-.061.289-.118.43-.178l2.256 2.26c.7809997.7807639 2.0470003.7807639 2.828 0l2.259-2.259c.138.059.283.114.418.174 1.5256484.7500967 3.2093347 1.1222295 4.909 1.085h.15c2.0792458-.0248783 4.0970093-.7086701 5.763-1.953-.5172966 3.4196365-3.4544609 5.9489203-6.913 5.953zm11-15c-.0002995 1.2028783-.7190524 2.2892737-1.826 2.76-.016.007-.033.009-.048.017-.3574085.1463576-.7397869.2220862-1.126.223h-50c-.38555494-.0010205-.76725841-.0767499-1.124-.223-.01701247-.0068897-.03436884-.0128977-.052-.018-1.31025254-.5594801-2.04628991-1.9633236-1.76124475-3.3592208.28504516-1.3958971 1.51254173-2.3987828 2.93724475-2.3997792h50c1.6568542 0 3 1.3431458 3 3zm-17-17c6.7886292.0084147 12.431138 5.2321538 12.962 12h-47.924c.52246426-6.7719109 6.1699646-12.000271 12.962-12h7v2h-1c-.5522847 0-1 .4477153-1 1s.4477153 1 1 1h10c.5522847 0 1-.4477153 1-1s-.4477153-1-1-1h-1v-2zm-9 2h-4v-8h4zm26-11c0 .5522847-.4477153 1-1 1h-54c-.55228475 0-1-.4477153-1-1v-14c0-.55228475.44771525-1 1-1h54c.5522847 0 1 .44771525 1 1z"/><circle id="Oval" cx="17" cy="35" r="1"/><circle id="Oval" cx="21" cy="32" r="1"/><circle id="Oval" cx="33" cy="35" r="1"/><circle id="Oval" cx="41" cy="29" r="1"/><circle id="Oval" cx="25" cy="35" r="1"/><circle id="Oval" cx="29" cy="32" r="1"/><circle id="Oval" cx="41" cy="35" r="1"/><circle id="Oval" cx="49" cy="35" r="1"/><circle id="Oval" cx="45" cy="32" r="1"/><circle id="Oval" cx="37" cy="32" r="1"/></g></g></g></svg>